<svg width="200" height="23" viewBox="0 0 200 23" fill="none" xmlns="http://www.w3.org/2000/svg">
<path d="M1.08 22C0.88 22 0.72 21.93 0.6 21.79C0.48 21.65 0.44 21.47 0.48 21.25L4.62 1.75C4.66 1.53 4.76 1.35 4.92 1.21C5.1 1.07 5.3 0.999999 5.52 0.999999H8.22C8.52 0.999999 8.73 1.07 8.85 1.21C8.97 1.33 9.04 1.44 9.06 1.54L14.43 14.14L17.07 1.75C17.11 1.53 17.21 1.35 17.37 1.21C17.55 1.07 17.75 0.999999 17.97 0.999999H21C21.22 0.999999 21.38 1.07 21.48 1.21C21.6 1.35 21.64 1.53 21.6 1.75L17.46 21.25C17.42 21.45 17.31 21.63 17.13 21.79C16.97 21.93 16.79 22 16.59 22H13.86C13.56 22 13.35 21.93 13.23 21.79C13.13 21.65 13.06 21.54 13.02 21.46L7.59 9.22L5.04 21.25C5 21.47 4.89 21.65 4.71 21.79C4.55 21.93 4.36 22 4.14 22H1.08ZM30.416 22.3C29.176 22.3 28.026 22.13 26.966 21.79C25.926 21.45 25.046 20.94 24.326 20.26C23.626 19.58 23.126 18.73 22.826 17.71C22.546 16.69 22.526 15.49 22.766 14.11C22.906 13.25 23.066 12.4 23.246 11.56C23.446 10.7 23.646 9.83 23.846 8.95C24.506 6.25 25.686 4.2 27.386 2.8C29.106 1.4 31.376 0.699999 34.196 0.699999C35.436 0.699999 36.576 0.879999 37.616 1.24C38.656 1.58 39.536 2.1 40.256 2.8C40.976 3.5 41.476 4.36 41.756 5.38C42.056 6.4 42.086 7.59 41.846 8.95C41.686 9.83 41.516 10.7 41.336 11.56C41.156 12.4 40.956 13.25 40.736 14.11C40.056 16.87 38.866 18.93 37.166 20.29C35.466 21.63 33.216 22.3 30.416 22.3ZM30.746 18.43C31.946 18.43 33.006 18.08 33.926 17.38C34.846 16.66 35.486 15.52 35.846 13.96C36.066 13.08 36.256 12.26 36.416 11.5C36.596 10.72 36.756 9.9 36.896 9.04C37.196 7.48 37.066 6.35 36.506 5.65C35.966 4.93 35.086 4.57 33.866 4.57C32.646 4.57 31.586 4.93 30.686 5.65C29.786 6.35 29.146 7.48 28.766 9.04C28.546 9.9 28.356 10.72 28.196 11.5C28.036 12.26 27.876 13.08 27.716 13.96C27.436 15.52 27.556 16.66 28.076 17.38C28.616 18.08 29.506 18.43 30.746 18.43ZM51.5098 22.3C50.2698 22.3 49.1198 22.13 48.0598 21.79C47.0198 21.45 46.1398 20.94 45.4198 20.26C44.7198 19.58 44.2198 18.73 43.9198 17.71C43.6398 16.69 43.6198 15.49 43.8598 14.11C43.9998 13.25 44.1598 12.4 44.3398 11.56C44.5398 10.7 44.7398 9.83 44.9398 8.95C45.5998 6.25 46.7798 4.2 48.4798 2.8C50.1998 1.4 52.4698 0.699999 55.2898 0.699999C56.5298 0.699999 57.6698 0.879999 58.7098 1.24C59.7498 1.58 60.6298 2.1 61.3498 2.8C62.0698 3.5 62.5698 4.36 62.8498 5.38C63.1498 6.4 63.1798 7.59 62.9398 8.95C62.7798 9.83 62.6098 10.7 62.4298 11.56C62.2498 12.4 62.0498 13.25 61.8298 14.11C61.1498 16.87 59.9598 18.93 58.2598 20.29C56.5598 21.63 54.3098 22.3 51.5098 22.3ZM51.8398 18.43C53.0398 18.43 54.0998 18.08 55.0198 17.38C55.9398 16.66 56.5798 15.52 56.9398 13.96C57.1598 13.08 57.3498 12.26 57.5098 11.5C57.6898 10.72 57.8498 9.9 57.9898 9.04C58.2898 7.48 58.1598 6.35 57.5998 5.65C57.0598 4.93 56.1798 4.57 54.9598 4.57C53.7398 4.57 52.6798 4.93 51.7798 5.65C50.8798 6.35 50.2398 7.48 49.8598 9.04C49.6398 9.9 49.4498 10.72 49.2898 11.5C49.1298 12.26 48.9698 13.08 48.8098 13.96C48.5298 15.52 48.6498 16.66 49.1698 17.38C49.7098 18.08 50.5998 18.43 51.8398 18.43ZM64.6835 22C64.4835 22 64.3235 21.93 64.2035 21.79C64.0835 21.65 64.0435 21.47 64.0835 21.25L68.2235 1.75C68.2635 1.53 68.3735 1.35 68.5535 1.21C68.7335 1.07 68.9235 0.999999 69.1235 0.999999H76.2035C77.5235 0.999999 78.7235 1.18 79.8035 1.54C80.8835 1.9 81.7835 2.43 82.5035 3.13C83.2435 3.81 83.7635 4.66 84.0635 5.68C84.3635 6.7 84.3935 7.87 84.1535 9.19C83.9935 10.07 83.8435 10.84 83.7035 11.5C83.5635 12.16 83.3835 12.92 83.1635 13.78C82.7035 15.64 82.0535 17.18 81.2135 18.4C80.3935 19.62 79.3035 20.53 77.9435 21.13C76.6035 21.71 74.9035 22 72.8435 22H64.6835ZM69.5135 18.13H73.0235C74.0435 18.13 74.8935 17.98 75.5735 17.68C76.2735 17.38 76.8435 16.91 77.2835 16.27C77.7435 15.61 78.0935 14.76 78.3335 13.72C78.4935 13.14 78.6235 12.62 78.7235 12.16C78.8235 11.7 78.9135 11.24 78.9935 10.78C79.0935 10.32 79.1935 9.81 79.2935 9.25C79.5735 7.75 79.4235 6.65 78.8435 5.95C78.2835 5.23 77.2435 4.87 75.7235 4.87H72.3335L69.5135 18.13ZM85.953 22C85.753 22 85.593 21.93 85.473 21.79C85.353 21.65 85.313 21.47 85.353 21.25L89.523 1.75C89.563 1.53 89.663 1.35 89.823 1.21C90.003 1.07 90.193 0.999999 90.393 0.999999H93.753C93.953 0.999999 94.113 1.07 94.233 1.21C94.353 1.35 94.393 1.53 94.353 1.75L90.873 17.98H100.173C100.393 17.98 100.553 18.05 100.653 18.19C100.773 18.33 100.813 18.51 100.773 18.73L100.233 21.25C100.193 21.47 100.093 21.65 99.933 21.79C99.773 21.93 99.583 22 99.363 22H85.953ZM103.443 22C103.243 22 103.083 21.93 102.963 21.79C102.843 21.65 102.803 21.47 102.843 21.25L106.983 1.75C107.023 1.53 107.133 1.35 107.313 1.21C107.493 1.07 107.683 0.999999 107.883 0.999999H121.473C121.693 0.999999 121.853 1.07 121.953 1.21C122.073 1.35 122.113 1.53 122.073 1.75L121.563 4.15C121.523 4.35 121.413 4.52 121.233 4.66C121.073 4.8 120.883 4.87 120.663 4.87H110.943L109.923 9.58H118.983C119.203 9.58 119.363 9.65 119.463 9.79C119.583 9.93 119.623 10.11 119.583 10.33L119.103 12.55C119.063 12.75 118.953 12.92 118.773 13.06C118.613 13.2 118.423 13.27 118.203 13.27H109.173L108.123 18.13H118.083C118.303 18.13 118.463 18.2 118.563 18.34C118.683 18.48 118.723 18.66 118.683 18.88L118.173 21.25C118.133 21.47 118.023 21.65 117.843 21.79C117.683 21.93 117.493 22 117.273 22H103.443ZM129.049 22C128.849 22 128.689 21.93 128.569 21.79C128.449 21.65 128.409 21.47 128.449 21.25L132.589 1.75C132.629 1.53 132.739 1.35 132.919 1.21C133.099 1.07 133.289 0.999999 133.489 0.999999H141.319C142.519 0.999999 143.599 1.14 144.559 1.42C145.519 1.7 146.309 2.13 146.929 2.71C147.569 3.27 148.009 3.98 148.249 4.84C148.489 5.68 148.489 6.66 148.249 7.78C147.769 10.06 146.769 11.75 145.249 12.85C143.749 13.93 141.749 14.47 139.249 14.47H134.809L133.369 21.25C133.329 21.47 133.219 21.65 133.039 21.79C132.879 21.93 132.689 22 132.469 22H129.049ZM135.529 10.75H139.399C140.359 10.75 141.199 10.5 141.919 10C142.659 9.5 143.139 8.75 143.359 7.75C143.479 7.15 143.499 6.63 143.419 6.19C143.359 5.73 143.129 5.38 142.729 5.14C142.329 4.88 141.699 4.75 140.839 4.75H136.819L135.529 10.75ZM147.138 22C146.898 22 146.738 21.9 146.658 21.7C146.558 21.5 146.568 21.3 146.688 21.1L157.908 1.81C158.028 1.59 158.188 1.4 158.388 1.24C158.588 1.08 158.858 0.999999 159.198 0.999999H163.218C163.538 0.999999 163.768 1.08 163.908 1.24C164.048 1.4 164.128 1.59 164.148 1.81L167.208 21.1C167.248 21.38 167.198 21.6 167.058 21.76C166.918 21.92 166.738 22 166.518 22H163.458C163.158 22 162.948 21.93 162.828 21.79C162.708 21.65 162.628 21.49 162.588 21.31L161.988 18.04H153.528L151.518 21.4C151.418 21.54 151.288 21.68 151.128 21.82C150.968 21.94 150.748 22 150.468 22H147.138ZM155.478 14.17H161.688L160.398 5.53L155.478 14.17ZM170.328 22C170.108 22 169.938 21.93 169.818 21.79C169.718 21.65 169.688 21.47 169.728 21.25L173.898 1.75C173.938 1.53 174.038 1.35 174.198 1.21C174.378 1.07 174.568 0.999999 174.768 0.999999H178.188C178.388 0.999999 178.548 1.07 178.668 1.21C178.788 1.35 178.828 1.53 178.788 1.75L174.618 21.25C174.578 21.47 174.468 21.65 174.288 21.79C174.128 21.93 173.948 22 173.748 22H170.328ZM180.064 22C179.844 22 179.684 21.93 179.584 21.79C179.484 21.65 179.454 21.47 179.494 21.25L183.604 1.75C183.644 1.53 183.754 1.35 183.934 1.21C184.114 1.07 184.314 0.999999 184.534 0.999999H192.484C194.984 0.999999 196.824 1.58 198.004 2.74C199.204 3.88 199.574 5.53 199.114 7.69C198.814 9.15 198.204 10.37 197.284 11.35C196.384 12.33 195.294 13.06 194.014 13.54L196.654 21.04C196.674 21.1 196.684 21.15 196.684 21.19C196.704 21.23 196.704 21.29 196.684 21.37C196.644 21.53 196.544 21.68 196.384 21.82C196.244 21.94 196.084 22 195.904 22H192.574C192.214 22 191.964 21.91 191.824 21.73C191.704 21.53 191.614 21.35 191.554 21.19L189.364 14.32H185.734L184.234 21.25C184.194 21.47 184.084 21.65 183.904 21.79C183.744 21.93 183.554 22 183.334 22H180.064ZM186.514 10.51H190.384C191.464 10.51 192.324 10.26 192.964 9.76C193.604 9.26 194.024 8.56 194.224 7.66C194.404 6.76 194.284 6.05 193.864 5.53C193.464 5.01 192.714 4.75 191.614 4.75H187.744L186.514 10.51Z" fill="#310080"/>
</svg>
